<?xml version="1.0" encoding="UTF-8"?>
<svg xmlns="http://www.w3.org/2000/svg" xmlns:xlink="http://www.w3.org/1999/xlink" width="248px" height="40px" viewBox="0 0 248 40" version="1.1">
<g id="surface1">
<path style=" stroke:none;fill-rule:nonzero;fill:rgb(0%,66.666667%,7.45098%);fill-opacity:1;" d="M 18.277344 20 C 18.277344 15.871094 23.175781 12.527344 29.21875 12.527344 C 35.261719 12.527344 40.160156 15.871094 40.160156 20 C 40.160156 24.128906 35.261719 27.472656 29.21875 27.472656 C 23.175781 27.472656 18.277344 24.128906 18.277344 20 "/>
<path style=" stroke:none;fill-rule:nonzero;fill:rgb(0%,66.666667%,7.45098%);fill-opacity:1;" d="M 29.175781 0.0898438 C 13.066406 0.0898438 0 9.003906 0 19.945312 C 0 28.203125 7.292969 35.230469 17.902344 38.375 C 19.414062 38.8125 21.132812 38.761719 22.582031 38.234375 C 24.035156 37.707031 25.0625 36.761719 25.382812 35.660156 C 25.902344 33.910156 24.539062 32.15625 22.132812 31.472656 C 15.566406 29.585938 10.941406 25.160156 10.941406 19.988281 C 10.941406 13.101562 19.109375 7.53125 29.175781 7.53125 C 39.242188 7.53125 47.410156 13.101562 47.410156 19.988281 C 47.410156 25.160156 42.785156 29.585938 36.21875 31.472656 L 36.21875 31.476562 C 33.792969 32.148438 32.410156 33.910156 32.925781 35.667969 C 33.4375 37.425781 35.707031 38.683594 38.324219 38.660156 C 39.046875 38.65625 39.761719 38.558594 40.429688 38.371094 C 51.039062 35.300781 58.351562 28.257812 58.351562 19.941406 C 58.351562 8.941406 45.285156 0.0859375 29.175781 0.0859375 "/>
<path style=" stroke:none;fill-rule:nonzero;fill:rgb(0%,0%,0%);fill-opacity:1;" d="M 142.964844 17.855469 C 142.964844 14.257812 139.339844 11.570312 133.710938 11.570312 C 128.0625 11.570312 124.4375 14.257812 124.4375 17.855469 C 124.4375 21.457031 128.0625 24.144531 133.710938 24.144531 C 139.359375 24.144531 142.964844 21.457031 142.964844 17.855469 M 115.457031 17.855469 C 115.457031 11.242188 123.125 6.128906 133.796875 6.128906 C 144.527344 6.128906 152.132812 11.242188 152.132812 17.855469 C 152.132812 24.472656 144.527344 29.585938 133.796875 29.585938 C 123.125 29.585938 115.457031 24.472656 115.457031 17.855469 M 149.007812 34.429688 L 153.925781 34.429688 C 156.574219 34.429688 157.492188 33.757812 157.492188 32.171875 L 157.492188 6.171875 L 166.578125 6.171875 L 166.578125 32.171875 C 166.578125 37.65625 163.324219 40 154.675781 40 L 149.027344 40 L 149.027344 34.34375 Z M 100.867188 19.144531 C 100.867188 21.886719 96.78125 24.070312 91.613281 24.070312 C 85.757812 24.070312 82.109375 21.714844 82.109375 17.785156 C 82.109375 14.15625 86.007812 11.671875 91.988281 11.671875 C 96.742188 11.671875 100.886719 13.941406 100.886719 16.515625 L 100.886719 19.128906 Z M 101.238281 6.1875 L 101.238281 8.800781 L 101.113281 8.800781 C 98.757812 7.113281 94.882812 6.1875 90.253906 6.1875 C 80.316406 6.1875 72.957031 11.242188 72.957031 17.785156 C 72.957031 24.570312 80.503906 29.558594 90.546875 29.558594 C 95.046875 29.558594 98.820312 28.585938 101.113281 26.855469 L 101.238281 26.855469 L 101.238281 29.113281 C 101.238281 32.144531 97.402344 34.386719 92.339844 34.386719 C 87.234375 34.386719 84.253906 33.402344 81.691406 31.714844 L 75.769531 35.601562 C 79.730469 38.472656 85.710938 40.101562 92.527344 40.101562 C 102.90625 40.101562 109.992188 35.34375 109.992188 29.027344 L 109.992188 6.171875 L 101.21875 6.171875 Z M 189.808594 11.214844 C 194.644531 11.214844 198.019531 12.929688 198.457031 15.527344 L 181.035156 15.527344 C 181.527344 12.929688 184.914062 11.214844 189.808594 11.214844 M 190.746094 24.628906 C 185.308594 24.628906 181.035156 22.230469 180.910156 19.898438 L 207.378906 19.898438 L 207.378906 18.144531 C 207.378906 11.484375 200.625 6.199219 189.707031 6.199219 C 179.390625 6.199219 172.03125 11.144531 172.03125 17.972656 C 172.03125 25.015625 179.804688 29.65625 191.207031 29.65625 C 198.207031 29.65625 203.210938 27.371094 205.835938 25.171875 L 199.6875 22.230469 C 196.957031 23.972656 194.476562 24.628906 190.832031 24.628906 M 212.714844 0.199219 L 221.488281 0.199219 L 221.535156 15.628906 L 221.652344 15.628906 L 236.324219 6.230469 L 248.078125 6.230469 L 232.867188 16.058594 L 248.015625 29.730469 L 237.535156 29.730469 L 227.132812 19.84375 L 227.015625 19.84375 L 221.492188 23.414062 L 221.492188 29.742188 L 212.71875 29.742188 Z M 212.714844 0.199219 "/>
</g>
</svg>
